<?xml version="1.0" standalone="no"?>
<!DOCTYPE svg PUBLIC "-//W3C//DTD SVG 20010904//EN"
 "http://www.w3.org/TR/2001/REC-SVG-20010904/DTD/svg10.dtd">
<svg version="1.0" xmlns="http://www.w3.org/2000/svg"
 viewBox="0 0 2600.000000 2600.000000"
 preserveAspectRatio="xMidYMid meet">
<metadata>
Created by potrace 1.15, written by Peter Selinger 2001-2017
</metadata>
<g transform="translate(0.000000,2600.000000) scale(0.100000,-0.100000)"
fill="#000000" stroke="none">
<path d="M12934 20389 c-174 -29 -327 -109 -454 -238 -91 -92 -135 -158 -179
-268 -46 -113 -56 -168 -56 -313 0 -161 20 -243 92 -384 62 -121 209 -272 322
-330 l74 -39 -66 -34 c-165 -87 -304 -247 -372 -428 -45 -118 -55 -198 -55
-429 l0 -213 -192 -6 c-106 -3 -247 -13 -313 -22 -959 -130 -1974 -661 -2935
-1534 -58 -52 -222 -210 -365 -351 -399 -392 -604 -573 -920 -810 -513 -385
-1060 -678 -1532 -823 l-81 -25 -49 35 c-71 52 -177 100 -273 124 -109 28
-277 23 -385 -11 -251 -79 -442 -276 -511 -530 -25 -90 -25 -290 0 -380 39
-142 137 -297 241 -380 24 -19 44 -38 44 -41 1 -3 -478 -1184 -1062 -2625
l-1064 -2619 -204 -5 -204 -5 3 -64 c4 -77 42 -203 91 -296 215 -413 848 -845
1691 -1153 492 -180 1002 -287 1265 -267 365 28 910 182 1422 401 702 300
1195 665 1396 1034 43 77 84 215 88 291 l3 54 -205 3 -204 2 -1063 2618 c-584
1439 -1062 2620 -1062 2623 0 4 33 40 74 80 40 41 88 98 105 126 27 44 39 54
74 63 99 26 463 153 587 205 476 201 927 464 1385 807 343 258 579 466 1030
908 285 280 427 409 640 581 597 484 1199 812 1754 955 204 53 355 75 554 81
l177 6 0 -337 c0 -268 3 -353 16 -414 35 -169 124 -325 255 -444 l79 -73 0
-75 0 -75 -79 -73 c-187 -171 -281 -396 -268 -646 11 -229 96 -410 266 -568
l81 -75 0 -2769 -1 -2769 -51 -39 c-142 -110 -253 -304 -288 -502 -13 -77 -10
-1082 4 -1120 6 -16 -3 -34 -40 -80 -171 -212 -414 -465 -626 -650 -594 -519
-1235 -860 -2008 -1067 l-155 -41 -760 -6 c-753 -5 -761 -5 -818 -27 -163 -61
-270 -178 -312 -340 -66 -252 103 -518 363 -572 75 -16 10259 -16 10334 0 260
54 429 320 363 572 -22 83 -60 153 -118 215 -58 60 -107 92 -194 125 -57 22
-65 22 -818 27 l-760 6 -155 41 c-1039 279 -1912 841 -2599 1676 -80 97 -81
99 -74 140 5 23 8 285 8 582 l0 540 -31 92 c-54 159 -142 290 -253 380 l-60
48 0 2766 -1 2767 103 103 c83 85 111 121 149 194 63 121 88 215 95 351 13
250 -81 475 -268 646 l-79 73 0 75 0 75 79 73 c131 119 220 275 255 444 13 65
16 163 16 612 l0 535 38 10 c229 61 454 85 792 85 392 0 710 -37 1108 -130
434 -101 730 -198 1322 -434 841 -335 1606 -519 2375 -571 185 -13 680 -6 825
11 200 23 219 24 225 8 5 -12 -1983 -4934 -2105 -5215 l-19 -43 -204 0 -203 0
7 -69 c9 -86 23 -138 60 -224 144 -341 572 -698 1194 -998 585 -281 1314 -489
1713 -489 394 0 1137 217 1730 506 243 118 338 171 532 300 417 276 661 567
716 851 8 41 14 86 14 99 l0 24 -204 0 -204 0 -30 73 c-17 39 -496 1220 -1066
2624 l-1036 2551 88 89 c138 139 209 296 219 488 19 353 -207 667 -552 767
-65 19 -103 23 -205 22 -114 0 -133 -3 -220 -33 -118 -40 -216 -100 -298 -183
-51 -51 -132 -157 -144 -189 -10 -26 -617 -39 -859 -19 -580 49 -1150 181
-1779 413 -52 19 -219 85 -371 145 -819 326 -1504 499 -2229 563 -331 29 -798
12 -1111 -41 -64 -11 -119 -20 -123 -20 -3 0 -6 13 -6 28 0 85 -72 278 -141
379 -68 98 -188 203 -294 256 l-47 24 54 28 c80 41 137 86 215 168 255 268
295 666 101 995 -50 86 -189 221 -283 276 -165 96 -371 135 -551 105z m9237
-6936 c569 -1400 1036 -2549 1037 -2554 2 -5 -938 -9 -2177 -9 -1274 0 -2181
4 -2181 9 0 8 2055 5075 2065 5091 2 4 54 7 114 8 l108 0 1034 -2545z m-15611
-3181 c567 -1399 1030 -2546 1027 -2548 -2 -2 -983 -3 -2179 -2 l-2175 3 968
2385 c533 1312 998 2458 1035 2547 l66 162 107 3 c58 2 109 1 112 -2 4 -3 471
-1149 1039 -2548z"/>
</g>
</svg>
